<svg xmlns="http://www.w3.org/2000/svg" viewBox="0 0 256 256" role="img" aria-label="Cloudio Radio icon">
  <rect width="256" height="256" rx="32" fill="#fffdf8"/>
  <g fill="none" stroke="#111" stroke-linecap="round" stroke-linejoin="round">
    <path d="M121 1 A 123 123 0 1 0 151 244" stroke-width="14"/>
    <path d="M149 4 A 123 123 0 0 1 250 112" stroke-width="14"/>
    <path d="M248 134 A 123 123 0 0 1 185 238" stroke-width="14"/>

    <path d="M119 23 A 101 101 0 1 0 153 222" stroke-width="13"/>
    <path d="M149 25 A 101 101 0 0 1 225 112" stroke-width="13"/>
    <path d="M223 134 A 101 101 0 0 1 181 216" stroke-width="13"/>

    <path d="M119 45 A 79 79 0 1 0 151 200" stroke-width="12"/>
    <path d="M149 47 A 79 79 0 0 1 201 112" stroke-width="12"/>
    <path d="M199 134 A 79 79 0 0 1 177 192" stroke-width="12"/>

    <path d="M119 67 A 57 57 0 1 0 150 178" stroke-width="12"/>
    <path d="M149 69 A 57 57 0 0 1 177 112" stroke-width="12"/>
    <path d="M175 134 A 57 57 0 0 1 167 169" stroke-width="12"/>

    <path d="M119 90 A 35 35 0 1 0 151 155" stroke-width="11"/>
    <path d="M149 92 A 35 35 0 0 1 154 114" stroke-width="11"/>
    <path d="M153 136 A 35 35 0 0 1 149 145" stroke-width="11"/>

    <circle cx="132" cy="114" r="13" stroke-width="10"/>
  </g>
</svg>
